<svg width="66" height="67" viewBox="0 0 66 67" fill="none" xmlns="http://www.w3.org/2000/svg">
<path fill-rule="evenodd" clip-rule="evenodd" d="M43.989 9.31988C38.6707 6.95019 32.7289 6.36314 27.0497 7.64627C21.3705 8.92941 16.2583 12.014 12.4754 16.44C8.69246 20.866 6.44162 26.3962 6.05853 32.2059C5.67544 38.0157 7.18062 43.7936 10.3496 48.678C13.5186 53.5624 18.1815 57.2915 23.6431 59.3093C29.1046 61.327 35.0721 61.5252 40.6555 59.8744C46.2389 58.2236 51.1391 54.8121 54.6252 50.1488C58.1114 45.4855 59.9967 39.8202 60 33.9979V31.2396C60 29.5827 61.3432 28.2396 63 28.2396C64.6569 28.2396 66 29.5827 66 31.2396V33.9996C65.996 41.1158 63.6917 48.0417 59.4308 53.7413C55.17 59.4409 49.1808 63.6105 42.3567 65.6282C35.5325 67.6459 28.239 67.4036 21.5638 64.9374C14.8885 62.4713 9.18936 57.9134 5.31617 51.9436C1.44298 45.9738 -0.396689 38.9119 0.0715334 31.8111C0.539756 24.7104 3.29078 17.9512 7.91432 12.5417C12.5379 7.13212 18.7862 3.36207 25.7274 1.79379C32.6687 0.225512 39.9309 0.943022 46.431 3.83931C47.9444 4.51365 48.6246 6.28718 47.9503 7.8006C47.276 9.31401 45.5024 9.99422 43.989 9.31988ZM65.1203 7.87722C66.2924 9.0482 66.2934 10.9477 65.1224 12.1199L35.1224 42.1499C34.5599 42.7129 33.7967 43.0294 33.0008 43.0296C32.2049 43.0298 31.4415 42.7137 30.8787 42.1509L21.8787 33.1509C20.7071 31.9793 20.7071 30.0799 21.8787 28.9083C23.0503 27.7367 24.9498 27.7367 26.1213 28.9083L32.999 35.7859L60.8776 7.87934C62.0486 6.70718 63.9481 6.70623 65.1203 7.87722Z" fill="#0070C0"/>
</svg>
